HIERARCHY
ROOT Hips
{
	OFFSET 0.000000 0.000000 0.000000
	CHANNELS 6 Xposition Yposition Zposition Zrotation Yrotation Xrotation 
	JOINT LHipJoint
	{
		OFFSET 0.000000 0.000000 0.000000
		CHANNELS 3 Zrotation Yrotation Xrotation
		JOINT LeftUpLeg
		{
			OFFSET 1.363060 -1.794630 0.839290
			CHANNELS 3 Zrotation Yrotation Xrotation
			JOINT LeftLeg
			{
				OFFSET 2.448110 -6.726130 0.000000
				CHANNELS 3 Zrotation Yrotation Xrotation
				JOINT LeftFoot
				{
					OFFSET 2.562200 -7.039590 0.000000
					CHANNELS 3 Zrotation Yrotation Xrotation
					JOINT LeftToeBase
					{
						OFFSET 0.157640 -0.433110 2.322550
						CHANNELS 3 Zrotation Yrotation Xrotation
						End Site
						{
							OFFSET 0.000000 0.000000 0.000000
						}
					}
				}
			}
		}
	}
	JOINT RHipJoint
	{
		OFFSET 0.000000 0.000000 0.000000
		CHANNELS 3 Zrotation Yrotation Xrotation
		JOINT RightUpLeg
		{
			OFFSET -1.305520 -1.794630 0.839290
			CHANNELS 3 Zrotation Yrotation Xrotation
			JOINT RightLeg
			{
				OFFSET -2.542530 -6.985550 0.000000
				CHANNELS 3 Zrotation Yrotation Xrotation
				JOINT RightFoot
				{
					OFFSET -2.568260 -7.056230 0.000000
					CHANNELS 3 Zrotation Yrotation Xrotation
					JOINT RightToeBase
					{
						OFFSET -0.164730 -0.452590 2.363150
						CHANNELS 3 Zrotation Yrotation Xrotation
						End Site
						{
							OFFSET 0.000000 0.000000 0.000000
						}
					}
				}
			}
		}
	}
	JOINT LowerBack
	{
		OFFSET 0.000000 0.000000 0.000000
		CHANNELS 3 Zrotation Yrotation Xrotation
		JOINT Spine
		{
			OFFSET 0.028270 2.035590 -0.193380
			CHANNELS 3 Zrotation Yrotation Xrotation
			JOINT Spine1
			{
				OFFSET 0.056720 2.048850 -0.042750
				CHANNELS 3 Zrotation Yrotation Xrotation
				JOINT Neck
				{
					OFFSET 0.000000 0.000000 0.000000
					CHANNELS 3 Zrotation Yrotation Xrotation
					JOINT Neck1
					{
						OFFSET -0.054170 1.746240 0.172020
						CHANNELS 3 Zrotation Yrotation Xrotation
						JOINT Head
						{
							OFFSET 0.104070 1.761360 -0.123970
							CHANNELS 3 Zrotation Yrotation Xrotation
							End Site
							{
								OFFSET 0.000000 0.000000 0.000000
							}
						}
					}
				}
				JOINT LeftShoulder
				{
					OFFSET 0.000000 0.000000 0.000000
					CHANNELS 3 Zrotation Yrotation Xrotation
					JOINT LeftArm
					{
						OFFSET 3.362410 1.200890 -0.311210
						CHANNELS 3 Zrotation Yrotation Xrotation
						JOINT LeftForeArm
						{
							OFFSET 4.983000 -0.000000 -0.000000
							CHANNELS 3 Zrotation Yrotation Xrotation
							JOINT LeftHand
							{
								OFFSET 3.483560 -0.000000 -0.000000
								CHANNELS 3 Zrotation Yrotation Xrotation
								JOINT LeftFingerBase
								{
									OFFSET 0.000000 0.000000 0.000000
									CHANNELS 3 Zrotation Yrotation Xrotation
									JOINT LeftHandIndex1
									{
										OFFSET 0.715260 -0.000000 -0.000000
										CHANNELS 3 Zrotation Yrotation Xrotation
										End Site
										{
											OFFSET 0.000000 0.000000 0.000000
										}
									}
								}
								JOINT LThumb
								{
									OFFSET 0.000000 0.000000 0.000000
									CHANNELS 3 Zrotation Yrotation Xrotation
									End Site
									{
										OFFSET 0.000000 0.000000 0.000000
									}
								}
							}
						}
					}
				}
				JOINT RightShoulder
				{
					OFFSET 0.000000 0.000000 0.000000
					CHANNELS 3 Zrotation Yrotation Xrotation
					JOINT RightArm
					{
						OFFSET -3.136600 1.374050 -0.404650
						CHANNELS 3 Zrotation Yrotation Xrotation
						JOINT RightForeArm
						{
							OFFSET -5.241900 -0.000000 -0.000000
							CHANNELS 3 Zrotation Yrotation Xrotation
							JOINT RightHand
							{
								OFFSET -3.444170 -0.000000 -0.000000
								CHANNELS 3 Zrotation Yrotation Xrotation
								JOINT RightFingerBase
								{
									OFFSET 0.000000 0.000000 0.000000
									CHANNELS 3 Zrotation Yrotation Xrotation
									JOINT RightHandIndex1
									{
										OFFSET -0.622530 -0.000000 -0.000000
										CHANNELS 3 Zrotation Yrotation Xrotation
										End Site
										{
											OFFSET 0.000000 0.000000 0.000000
										}
									}
								}
								JOINT RThumb
								{
									OFFSET 0.000000 0.000000 0.000000
									CHANNELS 3 Zrotation Yrotation Xrotation
									End Site
									{
										OFFSET 0.000000 0.000000 0.000000
									}
								}
							}
						}
					}
				}
			}
		}
	}
}
MOTION
Frames: 11
Frame Time: 0.008333
24.512405 14.481567 -9.681598 -96.714202 -87.297839 78.432101 0.407554 -38.455034 -13.948333 32.730788 5.592081 -8.263903 -58.702783 17.620145 12.509334 15.320477 28.559632 70.499380 3.987500 12.143800 36.242600 -0.796784 42.906321 -12.036818 -33.141286 3.421444 -8.766351 55.863745 -18.454432 1.063312 -17.782134 -25.207881 73.220899 -0.980400 -6.302700 17.665300 -10.956713 0.118943 49.324237 10.308022 49.940392 -12.006841 -7.339428 -14.483029 8.595903 -8.829842 16.749105 -15.358792 3.608482 23.879323 14.071401 0.269100 11.973400 5.506300 2.909037 -16.964406 15.011316 -65.437161 -82.876212 71.327754 30.854373 -24.999410 -13.806002 -2.790639 -11.519509 25.131050 -17.471779 22.830137 -11.735800 -7.125000 0.000000 0.000000 -55.688300 55.499800 -18.410600 1.056093 -8.855670 1.117614 40.276557 51.700179 38.546990 -33.567690 26.071943 -25.977022 -3.634795 -1.322350 11.827900 -5.428584 18.254456 -0.752600 7.125000 0.000000 0.000000 16.753500 -10.190100 14.160900 
24.512988 14.477193 -9.684660 -96.402722 -86.175405 78.712003 0.821328 -38.078945 -14.469635 33.283769 5.747202 -8.166763 -58.780849 17.706388 12.748194 15.192166 28.390742 70.465574 3.942000 12.082800 36.025600 -0.519221 43.197444 -12.511358 -33.204961 3.117858 -8.965020 55.775759 -18.374481 0.959049 -17.816761 -25.073372 73.285735 -0.907300 -6.070000 16.987700 -11.732785 3.281253 51.024714 14.940630 49.042247 -17.230102 -9.269030 -13.724572 11.899171 -8.431792 16.218395 -15.214888 3.377335 23.247894 14.477289 0.121300 11.673600 5.936400 1.113535 -19.063425 16.510966 -66.633455 -83.191137 72.908846 28.770997 -23.550977 -13.712045 -2.329290 -11.722437 24.697655 -17.825398 22.757078 -12.163206 -7.125000 0.000000 0.000000 -56.178500 55.270500 -18.313600 1.477267 -6.915091 0.912124 37.239138 50.211441 36.435714 -32.389958 23.555518 -25.836753 -3.677160 -1.366490 11.995651 -5.549360 18.312420 -0.791200 7.125000 0.000000 0.000000 16.687800 -10.066400 14.143800 
24.522612 14.477922 -9.688160 -96.064075 -87.621105 77.793398 0.296118 -38.579758 -14.210138 33.082243 5.135260 -8.305878 -58.553826 17.912174 12.775406 15.362838 28.387530 70.367189 3.821200 11.918500 35.444400 -0.780796 42.942709 -12.006534 -33.016400 2.974575 -8.607656 55.810880 -18.175693 1.165505 -17.738150 -25.090018 73.334190 -0.918300 -6.105700 17.091500 -10.246884 -0.481526 49.373141 9.127764 49.797375 -10.875546 -7.586203 -14.499949 7.844317 -8.333921 16.456474 -15.400867 3.482767 23.516016 13.982823 -0.093700 11.786900 5.601000 3.152233 -16.999336 14.625758 -64.073116 -82.901968 71.231907 30.641532 -24.068515 -13.774456 -2.615208 -11.782998 24.640080 -18.024568 22.409322 -12.118200 -7.125000 0.000000 0.000000 -56.019100 55.172800 -18.084000 1.122397 -8.693154 1.168291 40.261916 52.145109 38.390127 -33.220473 25.429423 -25.686698 -3.637710 -1.367239 11.971739 -5.615853 18.076475 -0.817900 7.125000 0.000000 0.000000 16.634400 -10.295000 14.013500 
24.525237 14.464360 -9.685535 -95.896279 -89.009940 77.161740 -0.192729 -39.123565 -13.851402 32.548036 5.405569 -8.451067 -58.480498 17.779329 12.594192 15.408554 28.450284 70.528311 3.732900 11.796200 35.014600 -0.949948 42.497518 -11.679261 -33.135077 3.103168 -8.424102 55.754251 -18.142097 1.623133 -17.743999 -25.037658 73.269393 -0.919600 -6.109700 17.103100 -9.229569 -3.160791 48.239081 4.566182 49.837934 -6.218231 -6.167544 -15.112308 4.782430 -8.288068 16.619994 -15.602073 3.623335 23.706827 13.652610 -0.172500 11.871500 5.421900 4.358872 -15.653299 13.064396 -62.288725 -82.316620 69.520641 31.592008 -24.178577 -13.991747 -2.690475 -11.962050 24.632441 -18.604458 22.221883 -12.502800 -7.125000 0.000000 0.000000 -56.521900 55.041200 -18.136300 1.152502 -9.603570 1.129352 42.162085 53.442512 39.910846 -33.625573 26.566165 -25.526299 -3.592778 -1.384069 12.044336 -5.702066 17.926385 -0.859300 7.125000 0.000000 0.000000 16.555900 -10.420200 13.897100 
24.530487 14.449341 -9.678536 -94.465765 -88.983828 75.739669 -0.341906 -39.028247 -14.059933 33.078402 4.548619 -8.416154 -58.428751 18.014009 12.801501 15.493644 28.436118 70.320057 3.810900 11.904400 35.394500 -1.021579 42.617673 -11.669062 -32.903719 2.680565 -8.381433 55.684975 -17.899558 1.631698 -17.718115 -24.957587 73.407257 -0.870800 -5.949700 16.638700 -9.045730 -3.360948 48.429447 4.472050 49.766954 -6.252814 -6.444076 -15.138650 4.795659 -8.114772 16.455741 -15.575663 3.591121 23.499420 13.753476 -0.246500 11.770300 5.601400 4.394895 -15.630269 12.894976 -62.319028 -82.025364 69.273124 31.674609 -24.388479 -14.283438 -2.497994 -12.251737 24.689215 -19.748531 22.336714 -13.506900 -7.125000 0.000000 0.000000 -57.965100 54.885100 -18.632200 1.170941 -9.605119 1.302594 42.270948 53.785960 39.889975 -33.479715 26.205298 -25.387188 -3.602817 -1.398911 12.354626 -5.792970 17.769385 -0.887400 7.125000 0.000000 0.000000 16.501200 -10.530900 13.808000 
24.538798 14.454590 -9.673140 -92.558335 -88.047683 73.918043 -0.262930 -38.595832 -14.406586 34.126122 2.816964 -8.226941 -58.449657 18.459677 13.082546 15.656596 28.318299 69.871295 3.847400 11.954500 35.571300 -1.193662 43.175060 -11.664212 -32.295425 2.150625 -8.363575 55.699732 -17.609605 1.101950 -17.663090 -24.935995 73.642907 -0.829500 -5.810500 16.235500 -9.414826 -2.747509 48.738107 6.467963 49.848201 -7.995613 -7.116437 -15.020618 5.979682 -7.984835 16.220737 -15.467335 3.455787 23.210176 14.025403 -0.261700 11.623600 5.840500 4.176628 -15.488547 13.258001 -63.043123 -81.716154 69.660954 32.240744 -25.393946 -14.454835 -2.228937 -12.331191 24.754121 -20.457179 22.111024 -14.031400 -7.125000 0.000000 0.000000 -58.417900 54.479600 -18.212500 0.998675 -9.755524 1.765498 42.604304 53.966128 39.766120 -33.617586 26.329168 -25.429870 -3.640474 -1.356672 12.388062 -5.614850 17.598833 -0.802300 7.125000 0.000000 0.000000 16.650400 -10.740200 13.870200 
24.537778 14.449195 -9.668620 -89.458986 -87.579842 70.706440 0.044791 -38.648647 -14.432233 34.773384 1.758293 -8.152978 -58.788762 18.786135 12.947800 15.714733 28.173645 69.605278 3.732200 11.795300 35.011500 -1.513320 43.289163 -11.524619 -31.694791 1.901711 -8.519837 55.632953 -17.460658 0.755535 -17.681385 -25.033669 73.755325 -0.881000 -5.983500 16.736600 -10.419574 -2.220290 48.614203 8.272536 49.850809 -9.299429 -7.195780 -15.271757 6.709494 -8.021784 16.117446 -15.264248 3.298232 23.100992 14.239925 -0.299700 11.563700 5.871300 4.130106 -14.676371 13.432389 -63.394070 -81.025526 69.263682 33.317615 -26.903725 -14.489872 -2.033089 -12.206511 25.023904 -20.631081 21.358929 -13.896100 -7.125000 0.000000 0.000000 -57.655900 53.791000 -16.708900 0.777769 -10.457573 2.447036 44.193158 54.532813 40.613726 -34.200679 27.570948 -25.569029 -3.678921 -1.304727 12.003215 -5.176332 17.589390 -0.628500 7.125000 0.000000 0.000000 16.969000 -10.846400 14.122900 
24.517654 14.417698 -9.668620 -87.426999 -87.654543 68.443224 0.889689 -39.252241 -14.060778 35.133248 1.560598 -8.333722 -59.470305 19.257391 12.186475 15.681831 27.682307 69.502594 3.604600 11.614800 34.382400 -1.866561 43.158820 -11.285059 -31.321051 1.946440 -8.674480 55.727882 -17.578699 0.277594 -17.655786 -24.973527 73.747116 -0.905700 -6.064700 16.972300 -11.316271 -1.832018 48.288541 9.168308 49.757166 -9.571099 -6.926579 -15.653482 6.805224 -8.230042 16.056544 -15.278030 3.206144 23.014682 14.356696 -0.218100 11.504400 5.892200 4.321591 -13.758300 13.477952 -63.663157 -80.655218 68.690171 34.271086 -28.149384 -14.441082 -2.097061 -12.087448 25.409644 -20.568951 21.097736 -13.708100 -7.125000 0.000000 0.000000 -57.215300 53.582300 -16.159100 0.593389 -11.174263 2.961488 46.086850 55.183749 41.771775 -34.765147 28.940139 -25.559849 -3.701875 -1.297942 11.791286 -5.018122 17.648802 -0.565300 7.125000 0.000000 0.000000 17.085500 -10.815400 14.241000 
24.509343 14.405595 -9.675036 -89.463460 -88.918412 70.244375 0.829967 -39.840017 -13.529974 34.817705 2.051922 -8.579523 -59.538437 19.287952 11.606603 15.728087 27.446146 69.745241 3.487400 11.445100 33.796200 -1.857537 42.881280 -11.121161 -31.720679 2.293159 -8.373690 55.915247 -17.733594 0.341154 -17.565747 -24.789798 73.656319 -0.812500 -5.752200 16.067200 -10.285484 -3.660312 47.717554 5.120914 49.798326 -5.758215 -5.985305 -16.017335 4.427214 -8.333408 15.969417 -15.835984 3.509534 22.844136 14.136827 0.066400 11.388100 6.066700 5.118298 -13.257555 12.223742 -62.231858 -80.636719 67.579773 34.096899 -27.188754 -14.443304 -2.220499 -12.169381 25.545916 -20.518109 20.965360 -13.654100 -7.125000 0.000000 0.000000 -57.142800 53.594100 -16.144500 0.679632 -11.334072 2.470544 46.628897 55.858517 42.414142 -34.765614 29.111585 -25.524274 -3.708678 -1.361370 11.876097 -4.985609 17.798692 -0.563900 7.125000 0.000000 0.000000 17.088100 -10.607500 14.319500 
24.531945 14.414052 -9.680577 86.231093 -88.442051 -105.922643 -0.474127 -40.694805 -12.897117 33.187496 3.976250 -8.584588 -59.214687 18.534609 10.975533 15.591296 27.581433 70.619331 3.480800 11.435400 33.762700 -1.433507 41.859732 -10.907409 -33.065556 3.244595 -7.906040 55.954239 -18.109772 1.596317 -17.594053 -24.822441 73.283712 -0.839700 -5.845200 16.335800 -7.793047 -7.330492 46.799109 -3.190798 49.095168 1.277136 -3.996060 -16.277241 0.049646 -8.439502 15.931339 -16.853226 4.159736 22.763969 13.666868 0.506600 11.298300 6.322700 6.072735 -13.265240 9.813605 -59.104352 -80.595932 65.652699 32.747305 -24.188342 -14.523868 -2.300041 -12.425281 25.598207 -20.555255 20.697813 -13.719400 -7.125000 0.000000 0.000000 -57.218100 53.563200 -16.129200 1.597948 -10.795586 1.116336 45.820617 56.655020 42.591963 -34.307598 28.173838 -25.536607 -3.754107 -1.402757 11.974567 -4.575239 17.921433 -0.415700 7.125000 0.000000 0.000000 17.354300 -10.467300 14.617800 
24.546527 14.416677 -9.693993 -85.432399 -86.539677 66.189432 0.997542 -38.738176 -14.269556 35.537320 0.084673 -8.265926 -59.065565 19.248974 13.350682 16.040904 27.518425 68.951411 3.738900 11.804600 35.044200 -1.883026 43.592840 -11.202202 -30.579852 1.956321 -8.828975 55.301354 -16.979616 0.281182 -17.821417 -25.362292 73.989461 -0.958600 -6.234300 17.465600 -12.861541 -0.783141 47.442575 12.321288 49.403563 -11.109902 -6.416541 -15.626660 8.157060 -9.532178 15.904998 -15.990301 3.350357 22.698051 14.969466 0.913000 11.217300 6.494200 4.493906 -12.509710 13.666149 -63.384333 -80.276381 67.552400 36.265193 -30.176694 -14.474387 -2.277401 -12.051758 25.818368 -20.583197 21.143218 -13.692400 -7.125000 0.000000 0.000000 -57.240300 53.647500 -16.277200 0.458377 -12.129643 3.696106 49.472826 56.300776 43.677197 -35.868347 31.359813 -25.519361 -3.948794 -1.275425 11.946536 -4.429934 18.045114 -0.291200 7.125000 0.000000 0.000000 17.576600 -10.447600 14.832200 
